<?xml version="1.0" encoding="utf-8" standalone="no"?>
<!DOCTYPE svg PUBLIC "-//W3C//DTD SVG 1.1//EN"
  "http://www.w3.org/Graphics/SVG/1.1/DTD/svg11.dtd">
<!-- Created with matplotlib (https://matplotlib.org/) -->
<svg height="374.774375pt" version="1.1" viewBox="0 0 362.5625 374.774375" width="362.5625pt" xmlns="http://www.w3.org/2000/svg" xmlns:xlink="http://www.w3.org/1999/xlink">
 <defs>
  <style type="text/css">
*{stroke-linecap:butt;stroke-linejoin:round;}
  </style>
 </defs>
 <g id="figure_1">
  <g id="patch_1">
   <path d="M 0 374.774375 
L 362.5625 374.774375 
L 362.5625 0 
L 0 0 
z
" style="fill:none;"/>
  </g>
  <g id="axes_1">
   <g id="patch_2">
    <path d="M 20.5625 224.64 
L 355.3625 224.64 
L 355.3625 7.2 
L 20.5625 7.2 
z
" style="fill:#ffffff;"/>
   </g>
   <g id="patch_3">
    <path clip-path="url(#pb571dd8a89)" d="M 31.025 224.64 
L 51.95 224.64 
L 51.95 17.554286 
L 31.025 17.554286 
z
" style="fill:#1f77b4;"/>
   </g>
   <g id="patch_4">
    <path clip-path="url(#pb571dd8a89)" d="M 72.875 224.64 
L 93.8 224.64 
L 93.8 167.732986 
L 72.875 167.732986 
z
" style="fill:#1f77b4;"/>
   </g>
   <g id="patch_5">
    <path clip-path="url(#pb571dd8a89)" d="M 114.725 224.64 
L 135.65 224.64 
L 135.65 163.251656 
L 114.725 163.251656 
z
" style="fill:#1f77b4;"/>
   </g>
   <g id="patch_6">
    <path clip-path="url(#pb571dd8a89)" d="M 156.575 224.64 
L 177.5 224.64 
L 177.5 157.027442 
L 156.575 157.027442 
z
" style="fill:#1f77b4;"/>
   </g>
   <g id="patch_7">
    <path clip-path="url(#pb571dd8a89)" d="M 198.425 224.64 
L 219.35 224.64 
L 219.35 73.029092 
L 198.425 73.029092 
z
" style="fill:#1f77b4;"/>
   </g>
   <g id="patch_8">
    <path clip-path="url(#pb571dd8a89)" d="M 240.275 224.64 
L 261.2 224.64 
L 261.2 142.69414 
L 240.275 142.69414 
z
" style="fill:#1f77b4;"/>
   </g>
   <g id="patch_9">
    <path clip-path="url(#pb571dd8a89)" d="M 282.125 224.64 
L 303.05 224.64 
L 303.05 52.625172 
L 282.125 52.625172 
z
" style="fill:#1f77b4;"/>
   </g>
   <g id="patch_10">
    <path clip-path="url(#pb571dd8a89)" d="M 323.975 224.64 
L 344.9 224.64 
L 344.9 131.615693 
L 323.975 131.615693 
z
" style="fill:#1f77b4;"/>
   </g>
   <g id="matplotlib.axis_1">
    <g id="xtick_1">
     <g id="line2d_1">
      <defs>
       <path d="M 0 0 
L 0 3.5 
" id="m79e77b6d0b" style="stroke:#000000;stroke-width:0.8;"/>
      </defs>
      <g>
       <use style="stroke:#000000;stroke-width:0.8;" x="41.4875" xlink:href="#m79e77b6d0b" y="224.64"/>
      </g>
     </g>
     <g id="text_1">
      <!-- product_name_lenght -->
      <defs>
       <path d="M 18.109375 8.203125 
L 18.109375 -20.796875 
L 9.078125 -20.796875 
L 9.078125 54.6875 
L 18.109375 54.6875 
L 18.109375 46.390625 
Q 20.953125 51.265625 25.265625 53.625 
Q 29.59375 56 35.59375 56 
Q 45.5625 56 51.78125 48.09375 
Q 58.015625 40.1875 58.015625 27.296875 
Q 58.015625 14.40625 51.78125 6.484375 
Q 45.5625 -1.421875 35.59375 -1.421875 
Q 29.59375 -1.421875 25.265625 0.953125 
Q 20.953125 3.328125 18.109375 8.203125 
z
M 48.6875 27.296875 
Q 48.6875 37.203125 44.609375 42.84375 
Q 40.53125 48.484375 33.40625 48.484375 
Q 26.265625 48.484375 22.1875 42.84375 
Q 18.109375 37.203125 18.109375 27.296875 
Q 18.109375 17.390625 22.1875 11.75 
Q 26.265625 6.109375 33.40625 6.109375 
Q 40.53125 6.109375 44.609375 11.75 
Q 48.6875 17.390625 48.6875 27.296875 
z
" id="DejaVuSans-112"/>
       <path d="M 41.109375 46.296875 
Q 39.59375 47.171875 37.8125 47.578125 
Q 36.03125 48 33.890625 48 
Q 26.265625 48 22.1875 43.046875 
Q 18.109375 38.09375 18.109375 28.8125 
L 18.109375 0 
L 9.078125 0 
L 9.078125 54.6875 
L 18.109375 54.6875 
L 18.109375 46.1875 
Q 20.953125 51.171875 25.484375 53.578125 
Q 30.03125 56 36.53125 56 
Q 37.453125 56 38.578125 55.875 
Q 39.703125 55.765625 41.0625 55.515625 
z
" id="DejaVuSans-114"/>
       <path d="M 30.609375 48.390625 
Q 23.390625 48.390625 19.1875 42.75 
Q 14.984375 37.109375 14.984375 27.296875 
Q 14.984375 17.484375 19.15625 11.84375 
Q 23.34375 6.203125 30.609375 6.203125 
Q 37.796875 6.203125 41.984375 11.859375 
Q 46.1875 17.53125 46.1875 27.296875 
Q 46.1875 37.015625 41.984375 42.703125 
Q 37.796875 48.390625 30.609375 48.390625 
z
M 30.609375 56 
Q 42.328125 56 49.015625 48.375 
Q 55.71875 40.765625 55.71875 27.296875 
Q 55.71875 13.875 49.015625 6.21875 
Q 42.328125 -1.421875 30.609375 -1.421875 
Q 18.84375 -1.421875 12.171875 6.21875 
Q 5.515625 13.875 5.515625 27.296875 
Q 5.515625 40.765625 12.171875 48.375 
Q 18.84375 56 30.609375 56 
z
" id="DejaVuSans-111"/>
       <path d="M 45.40625 46.390625 
L 45.40625 75.984375 
L 54.390625 75.984375 
L 54.390625 0 
L 45.40625 0 
L 45.40625 8.203125 
Q 42.578125 3.328125 38.25 0.953125 
Q 33.9375 -1.421875 27.875 -1.421875 
Q 17.96875 -1.421875 11.734375 6.484375 
Q 5.515625 14.40625 5.515625 27.296875 
Q 5.515625 40.1875 11.734375 48.09375 
Q 17.96875 56 27.875 56 
Q 33.9375 56 38.25 53.625 
Q 42.578125 51.265625 45.40625 46.390625 
z
M 14.796875 27.296875 
Q 14.796875 17.390625 18.875 11.75 
Q 22.953125 6.109375 30.078125 6.109375 
Q 37.203125 6.109375 41.296875 11.75 
Q 45.40625 17.390625 45.40625 27.296875 
Q 45.40625 37.203125 41.296875 42.84375 
Q 37.203125 48.484375 30.078125 48.484375 
Q 22.953125 48.484375 18.875 42.84375 
Q 14.796875 37.203125 14.796875 27.296875 
z
" id="DejaVuSans-100"/>
       <path d="M 8.5 21.578125 
L 8.5 54.6875 
L 17.484375 54.6875 
L 17.484375 21.921875 
Q 17.484375 14.15625 20.5 10.265625 
Q 23.53125 6.390625 29.59375 6.390625 
Q 36.859375 6.390625 41.078125 11.03125 
Q 45.3125 15.671875 45.3125 23.6875 
L 45.3125 54.6875 
L 54.296875 54.6875 
L 54.296875 0 
L 45.3125 0 
L 45.3125 8.40625 
Q 42.046875 3.421875 37.71875 1 
Q 33.40625 -1.421875 27.6875 -1.421875 
Q 18.265625 -1.421875 13.375 4.4375 
Q 8.5 10.296875 8.5 21.578125 
z
M 31.109375 56 
z
" id="DejaVuSans-117"/>
       <path d="M 48.78125 52.59375 
L 48.78125 44.1875 
Q 44.96875 46.296875 41.140625 47.34375 
Q 37.3125 48.390625 33.40625 48.390625 
Q 24.65625 48.390625 19.8125 42.84375 
Q 14.984375 37.3125 14.984375 27.296875 
Q 14.984375 17.28125 19.8125 11.734375 
Q 24.65625 6.203125 33.40625 6.203125 
Q 37.3125 6.203125 41.140625 7.25 
Q 44.96875 8.296875 48.78125 10.40625 
L 48.78125 2.09375 
Q 45.015625 0.34375 40.984375 -0.53125 
Q 36.96875 -1.421875 32.421875 -1.421875 
Q 20.0625 -1.421875 12.78125 6.34375 
Q 5.515625 14.109375 5.515625 27.296875 
Q 5.515625 40.671875 12.859375 48.328125 
Q 20.21875 56 33.015625 56 
Q 37.15625 56 41.109375 55.140625 
Q 45.0625 54.296875 48.78125 52.59375 
z
" id="DejaVuSans-99"/>
       <path d="M 18.3125 70.21875 
L 18.3125 54.6875 
L 36.8125 54.6875 
L 36.8125 47.703125 
L 18.3125 47.703125 
L 18.3125 18.015625 
Q 18.3125 11.328125 20.140625 9.421875 
Q 21.96875 7.515625 27.59375 7.515625 
L 36.8125 7.515625 
L 36.8125 0 
L 27.59375 0 
Q 17.1875 0 13.234375 3.875 
Q 9.28125 7.765625 9.28125 18.015625 
L 9.28125 47.703125 
L 2.6875 47.703125 
L 2.6875 54.6875 
L 9.28125 54.6875 
L 9.28125 70.21875 
z
" id="DejaVuSans-116"/>
       <path d="M 50.984375 -16.609375 
L 50.984375 -23.578125 
L -0.984375 -23.578125 
L -0.984375 -16.609375 
z
" id="DejaVuSans-95"/>
       <path d="M 54.890625 33.015625 
L 54.890625 0 
L 45.90625 0 
L 45.90625 32.71875 
Q 45.90625 40.484375 42.875 44.328125 
Q 39.84375 48.1875 33.796875 48.1875 
Q 26.515625 48.1875 22.3125 43.546875 
Q 18.109375 38.921875 18.109375 30.90625 
L 18.109375 0 
L 9.078125 0 
L 9.078125 54.6875 
L 18.109375 54.6875 
L 18.109375 46.1875 
Q 21.34375 51.125 25.703125 53.5625 
Q 30.078125 56 35.796875 56 
Q 45.21875 56 50.046875 50.171875 
Q 54.890625 44.34375 54.890625 33.015625 
z
" id="DejaVuSans-110"/>
       <path d="M 34.28125 27.484375 
Q 23.390625 27.484375 19.1875 25 
Q 14.984375 22.515625 14.984375 16.5 
Q 14.984375 11.71875 18.140625 8.90625 
Q 21.296875 6.109375 26.703125 6.109375 
Q 34.1875 6.109375 38.703125 11.40625 
Q 43.21875 16.703125 43.21875 25.484375 
L 43.21875 27.484375 
z
M 52.203125 31.203125 
L 52.203125 0 
L 43.21875 0 
L 43.21875 8.296875 
Q 40.140625 3.328125 35.546875 0.953125 
Q 30.953125 -1.421875 24.3125 -1.421875 
Q 15.921875 -1.421875 10.953125 3.296875 
Q 6 8.015625 6 15.921875 
Q 6 25.140625 12.171875 29.828125 
Q 18.359375 34.515625 30.609375 34.515625 
L 43.21875 34.515625 
L 43.21875 35.40625 
Q 43.21875 41.609375 39.140625 45 
Q 35.0625 48.390625 27.6875 48.390625 
Q 23 48.390625 18.546875 47.265625 
Q 14.109375 46.140625 10.015625 43.890625 
L 10.015625 52.203125 
Q 14.9375 54.109375 19.578125 55.046875 
Q 24.21875 56 28.609375 56 
Q 40.484375 56 46.34375 49.84375 
Q 52.203125 43.703125 52.203125 31.203125 
z
" id="DejaVuSans-97"/>
       <path d="M 52 44.1875 
Q 55.375 50.25 60.0625 53.125 
Q 64.75 56 71.09375 56 
Q 79.640625 56 84.28125 50.015625 
Q 88.921875 44.046875 88.921875 33.015625 
L 88.921875 0 
L 79.890625 0 
L 79.890625 32.71875 
Q 79.890625 40.578125 77.09375 44.375 
Q 74.3125 48.1875 68.609375 48.1875 
Q 61.625 48.1875 57.5625 43.546875 
Q 53.515625 38.921875 53.515625 30.90625 
L 53.515625 0 
L 44.484375 0 
L 44.484375 32.71875 
Q 44.484375 40.625 41.703125 44.40625 
Q 38.921875 48.1875 33.109375 48.1875 
Q 26.21875 48.1875 22.15625 43.53125 
Q 18.109375 38.875 18.109375 30.90625 
L 18.109375 0 
L 9.078125 0 
L 9.078125 54.6875 
L 18.109375 54.6875 
L 18.109375 46.1875 
Q 21.1875 51.21875 25.484375 53.609375 
Q 29.78125 56 35.6875 56 
Q 41.65625 56 45.828125 52.96875 
Q 50 49.953125 52 44.1875 
z
" id="DejaVuSans-109"/>
       <path d="M 56.203125 29.59375 
L 56.203125 25.203125 
L 14.890625 25.203125 
Q 15.484375 15.921875 20.484375 11.0625 
Q 25.484375 6.203125 34.421875 6.203125 
Q 39.59375 6.203125 44.453125 7.46875 
Q 49.3125 8.734375 54.109375 11.28125 
L 54.109375 2.78125 
Q 49.265625 0.734375 44.1875 -0.34375 
Q 39.109375 -1.421875 33.890625 -1.421875 
Q 20.796875 -1.421875 13.15625 6.1875 
Q 5.515625 13.8125 5.515625 26.8125 
Q 5.515625 40.234375 12.765625 48.109375 
Q 20.015625 56 32.328125 56 
Q 43.359375 56 49.78125 48.890625 
Q 56.203125 41.796875 56.203125 29.59375 
z
M 47.21875 32.234375 
Q 47.125 39.59375 43.09375 43.984375 
Q 39.0625 48.390625 32.421875 48.390625 
Q 24.90625 48.390625 20.390625 44.140625 
Q 15.875 39.890625 15.1875 32.171875 
z
" id="DejaVuSans-101"/>
       <path d="M 9.421875 75.984375 
L 18.40625 75.984375 
L 18.40625 0 
L 9.421875 0 
z
" id="DejaVuSans-108"/>
       <path d="M 45.40625 27.984375 
Q 45.40625 37.75 41.375 43.109375 
Q 37.359375 48.484375 30.078125 48.484375 
Q 22.859375 48.484375 18.828125 43.109375 
Q 14.796875 37.75 14.796875 27.984375 
Q 14.796875 18.265625 18.828125 12.890625 
Q 22.859375 7.515625 30.078125 7.515625 
Q 37.359375 7.515625 41.375 12.890625 
Q 45.40625 18.265625 45.40625 27.984375 
z
M 54.390625 6.78125 
Q 54.390625 -7.171875 48.1875 -13.984375 
Q 42 -20.796875 29.203125 -20.796875 
Q 24.46875 -20.796875 20.265625 -20.09375 
Q 16.0625 -19.390625 12.109375 -17.921875 
L 12.109375 -9.1875 
Q 16.0625 -11.328125 19.921875 -12.34375 
Q 23.78125 -13.375 27.78125 -13.375 
Q 36.625 -13.375 41.015625 -8.765625 
Q 45.40625 -4.15625 45.40625 5.171875 
L 45.40625 9.625 
Q 42.625 4.78125 38.28125 2.390625 
Q 33.9375 0 27.875 0 
Q 17.828125 0 11.671875 7.65625 
Q 5.515625 15.328125 5.515625 27.984375 
Q 5.515625 40.671875 11.671875 48.328125 
Q 17.828125 56 27.875 56 
Q 33.9375 56 38.28125 53.609375 
Q 42.625 51.21875 45.40625 46.390625 
L 45.40625 54.6875 
L 54.390625 54.6875 
z
" id="DejaVuSans-103"/>
       <path d="M 54.890625 33.015625 
L 54.890625 0 
L 45.90625 0 
L 45.90625 32.71875 
Q 45.90625 40.484375 42.875 44.328125 
Q 39.84375 48.1875 33.796875 48.1875 
Q 26.515625 48.1875 22.3125 43.546875 
Q 18.109375 38.921875 18.109375 30.90625 
L 18.109375 0 
L 9.078125 0 
L 9.078125 75.984375 
L 18.109375 75.984375 
L 18.109375 46.1875 
Q 21.34375 51.125 25.703125 53.5625 
Q 30.078125 56 35.796875 56 
Q 45.21875 56 50.046875 50.171875 
Q 54.890625 44.34375 54.890625 33.015625 
z
" id="DejaVuSans-104"/>
      </defs>
      <g transform="translate(44.107812 340.332187)rotate(-90)scale(0.1 -0.1)">
       <use xlink:href="#DejaVuSans-112"/>
       <use x="63.476562" xlink:href="#DejaVuSans-114"/>
       <use x="102.339844" xlink:href="#DejaVuSans-111"/>
       <use x="163.521484" xlink:href="#DejaVuSans-100"/>
       <use x="226.998047" xlink:href="#DejaVuSans-117"/>
       <use x="290.376953" xlink:href="#DejaVuSans-99"/>
       <use x="345.357422" xlink:href="#DejaVuSans-116"/>
       <use x="384.566406" xlink:href="#DejaVuSans-95"/>
       <use x="434.566406" xlink:href="#DejaVuSans-110"/>
       <use x="497.945312" xlink:href="#DejaVuSans-97"/>
       <use x="559.224609" xlink:href="#DejaVuSans-109"/>
       <use x="656.636719" xlink:href="#DejaVuSans-101"/>
       <use x="718.160156" xlink:href="#DejaVuSans-95"/>
       <use x="768.160156" xlink:href="#DejaVuSans-108"/>
       <use x="795.943359" xlink:href="#DejaVuSans-101"/>
       <use x="857.466797" xlink:href="#DejaVuSans-110"/>
       <use x="920.845703" xlink:href="#DejaVuSans-103"/>
       <use x="984.322266" xlink:href="#DejaVuSans-104"/>
       <use x="1047.701172" xlink:href="#DejaVuSans-116"/>
      </g>
     </g>
    </g>
    <g id="xtick_2">
     <g id="line2d_2">
      <g>
       <use style="stroke:#000000;stroke-width:0.8;" x="83.3375" xlink:href="#m79e77b6d0b" y="224.64"/>
      </g>
     </g>
     <g id="text_2">
      <!-- product_description_lenght -->
      <defs>
       <path d="M 44.28125 53.078125 
L 44.28125 44.578125 
Q 40.484375 46.53125 36.375 47.5 
Q 32.28125 48.484375 27.875 48.484375 
Q 21.1875 48.484375 17.84375 46.4375 
Q 14.5 44.390625 14.5 40.28125 
Q 14.5 37.15625 16.890625 35.375 
Q 19.28125 33.59375 26.515625 31.984375 
L 29.59375 31.296875 
Q 39.15625 29.25 43.1875 25.515625 
Q 47.21875 21.78125 47.21875 15.09375 
Q 47.21875 7.46875 41.1875 3.015625 
Q 35.15625 -1.421875 24.609375 -1.421875 
Q 20.21875 -1.421875 15.453125 -0.5625 
Q 10.6875 0.296875 5.421875 2 
L 5.421875 11.28125 
Q 10.40625 8.6875 15.234375 7.390625 
Q 20.0625 6.109375 24.8125 6.109375 
Q 31.15625 6.109375 34.5625 8.28125 
Q 37.984375 10.453125 37.984375 14.40625 
Q 37.984375 18.0625 35.515625 20.015625 
Q 33.0625 21.96875 24.703125 23.78125 
L 21.578125 24.515625 
Q 13.234375 26.265625 9.515625 29.90625 
Q 5.8125 33.546875 5.8125 39.890625 
Q 5.8125 47.609375 11.28125 51.796875 
Q 16.75 56 26.8125 56 
Q 31.78125 56 36.171875 55.265625 
Q 40.578125 54.546875 44.28125 53.078125 
z
" id="DejaVuSans-115"/>
       <path d="M 9.421875 54.6875 
L 18.40625 54.6875 
L 18.40625 0 
L 9.421875 0 
z
M 9.421875 75.984375 
L 18.40625 75.984375 
L 18.40625 64.59375 
L 9.421875 64.59375 
z
" id="DejaVuSans-105"/>
      </defs>
      <g transform="translate(85.957813 367.574375)rotate(-90)scale(0.1 -0.1)">
       <use xlink:href="#DejaVuSans-112"/>
       <use x="63.476562" xlink:href="#DejaVuSans-114"/>
       <use x="102.339844" xlink:href="#DejaVuSans-111"/>
       <use x="163.521484" xlink:href="#DejaVuSans-100"/>
       <use x="226.998047" xlink:href="#DejaVuSans-117"/>
       <use x="290.376953" xlink:href="#DejaVuSans-99"/>
       <use x="345.357422" xlink:href="#DejaVuSans-116"/>
       <use x="384.566406" xlink:href="#DejaVuSans-95"/>
       <use x="434.566406" xlink:href="#DejaVuSans-100"/>
       <use x="498.042969" xlink:href="#DejaVuSans-101"/>
       <use x="559.566406" xlink:href="#DejaVuSans-115"/>
       <use x="611.666016" xlink:href="#DejaVuSans-99"/>
       <use x="666.646484" xlink:href="#DejaVuSans-114"/>
       <use x="707.759766" xlink:href="#DejaVuSans-105"/>
       <use x="735.542969" xlink:href="#DejaVuSans-112"/>
       <use x="799.019531" xlink:href="#DejaVuSans-116"/>
       <use x="838.228516" xlink:href="#DejaVuSans-105"/>
       <use x="866.011719" xlink:href="#DejaVuSans-111"/>
       <use x="927.193359" xlink:href="#DejaVuSans-110"/>
       <use x="990.572266" xlink:href="#DejaVuSans-95"/>
       <use x="1040.572266" xlink:href="#DejaVuSans-108"/>
       <use x="1068.355469" xlink:href="#DejaVuSans-101"/>
       <use x="1129.878906" xlink:href="#DejaVuSans-110"/>
       <use x="1193.257812" xlink:href="#DejaVuSans-103"/>
       <use x="1256.734375" xlink:href="#DejaVuSans-104"/>
       <use x="1320.113281" xlink:href="#DejaVuSans-116"/>
      </g>
     </g>
    </g>
    <g id="xtick_3">
     <g id="line2d_3">
      <g>
       <use style="stroke:#000000;stroke-width:0.8;" x="125.1875" xlink:href="#m79e77b6d0b" y="224.64"/>
      </g>
     </g>
     <g id="text_3">
      <!-- product_photos_qty -->
      <defs>
       <path d="M 14.796875 27.296875 
Q 14.796875 17.390625 18.875 11.75 
Q 22.953125 6.109375 30.078125 6.109375 
Q 37.203125 6.109375 41.296875 11.75 
Q 45.40625 17.390625 45.40625 27.296875 
Q 45.40625 37.203125 41.296875 42.84375 
Q 37.203125 48.484375 30.078125 48.484375 
Q 22.953125 48.484375 18.875 42.84375 
Q 14.796875 37.203125 14.796875 27.296875 
z
M 45.40625 8.203125 
Q 42.578125 3.328125 38.25 0.953125 
Q 33.9375 -1.421875 27.875 -1.421875 
Q 17.96875 -1.421875 11.734375 6.484375 
Q 5.515625 14.40625 5.515625 27.296875 
Q 5.515625 40.1875 11.734375 48.09375 
Q 17.96875 56 27.875 56 
Q 33.9375 56 38.25 53.625 
Q 42.578125 51.265625 45.40625 46.390625 
L 45.40625 54.6875 
L 54.390625 54.6875 
L 54.390625 -20.796875 
L 45.40625 -20.796875 
z
" id="DejaVuSans-113"/>
       <path d="M 32.171875 -5.078125 
Q 28.375 -14.84375 24.75 -17.8125 
Q 21.140625 -20.796875 15.09375 -20.796875 
L 7.90625 -20.796875 
L 7.90625 -13.28125 
L 13.1875 -13.28125 
Q 16.890625 -13.28125 18.9375 -11.515625 
Q 21 -9.765625 23.484375 -3.21875 
L 25.09375 0.875 
L 2.984375 54.6875 
L 12.5 54.6875 
L 29.59375 11.921875 
L 46.6875 54.6875 
L 56.203125 54.6875 
z
" id="DejaVuSans-121"/>
      </defs>
      <g transform="translate(127.807812 330.338437)rotate(-90)scale(0.1 -0.1)">
       <use xlink:href="#DejaVuSans-112"/>
       <use x="63.476562" xlink:href="#DejaVuSans-114"/>
       <use x="102.339844" xlink:href="#DejaVuSans-111"/>
       <use x="163.521484" xlink:href="#DejaVuSans-100"/>
       <use x="226.998047" xlink:href="#DejaVuSans-117"/>
       <use x="290.376953" xlink:href="#DejaVuSans-99"/>
       <use x="345.357422" xlink:href="#DejaVuSans-116"/>
       <use x="384.566406" xlink:href="#DejaVuSans-95"/>
       <use x="434.566406" xlink:href="#DejaVuSans-112"/>
       <use x="498.042969" xlink:href="#DejaVuSans-104"/>
       <use x="561.421875" xlink:href="#DejaVuSans-111"/>
       <use x="622.603516" xlink:href="#DejaVuSans-116"/>
       <use x="661.8125" xlink:href="#DejaVuSans-111"/>
       <use x="722.994141" xlink:href="#DejaVuSans-115"/>
       <use x="775.09375" xlink:href="#DejaVuSans-95"/>
       <use x="825.09375" xlink:href="#DejaVuSans-113"/>
       <use x="888.570312" xlink:href="#DejaVuSans-116"/>
       <use x="927.779297" xlink:href="#DejaVuSans-121"/>
      </g>
     </g>
    </g>
    <g id="xtick_4">
     <g id="line2d_4">
      <g>
       <use style="stroke:#000000;stroke-width:0.8;" x="167.0375" xlink:href="#m79e77b6d0b" y="224.64"/>
      </g>
     </g>
     <g id="text_4">
      <!-- product_weight_g -->
      <defs>
       <path d="M 4.203125 54.6875 
L 13.1875 54.6875 
L 24.421875 12.015625 
L 35.59375 54.6875 
L 46.1875 54.6875 
L 57.421875 12.015625 
L 68.609375 54.6875 
L 77.59375 54.6875 
L 63.28125 0 
L 52.6875 0 
L 40.921875 44.828125 
L 29.109375 0 
L 18.5 0 
z
" id="DejaVuSans-119"/>
      </defs>
      <g transform="translate(169.657813 320.161875)rotate(-90)scale(0.1 -0.1)">
       <use xlink:href="#DejaVuSans-112"/>
       <use x="63.476562" xlink:href="#DejaVuSans-114"/>
       <use x="102.339844" xlink:href="#DejaVuSans-111"/>
       <use x="163.521484" xlink:href="#DejaVuSans-100"/>
       <use x="226.998047" xlink:href="#DejaVuSans-117"/>
       <use x="290.376953" xlink:href="#DejaVuSans-99"/>
       <use x="345.357422" xlink:href="#DejaVuSans-116"/>
       <use x="384.566406" xlink:href="#DejaVuSans-95"/>
       <use x="434.566406" xlink:href="#DejaVuSans-119"/>
       <use x="516.353516" xlink:href="#DejaVuSans-101"/>
       <use x="577.876953" xlink:href="#DejaVuSans-105"/>
       <use x="605.660156" xlink:href="#DejaVuSans-103"/>
       <use x="669.136719" xlink:href="#DejaVuSans-104"/>
       <use x="732.515625" xlink:href="#DejaVuSans-116"/>
       <use x="771.724609" xlink:href="#DejaVuSans-95"/>
       <use x="821.724609" xlink:href="#DejaVuSans-103"/>
      </g>
     </g>
    </g>
    <g id="xtick_5">
     <g id="line2d_5">
      <g>
       <use style="stroke:#000000;stroke-width:0.8;" x="208.8875" xlink:href="#m79e77b6d0b" y="224.64"/>
      </g>
     </g>
     <g id="text_5">
      <!-- product_length_cm -->
      <g transform="translate(211.507812 327.211875)rotate(-90)scale(0.1 -0.1)">
       <use xlink:href="#DejaVuSans-112"/>
       <use x="63.476562" xlink:href="#DejaVuSans-114"/>
       <use x="102.339844" xlink:href="#DejaVuSans-111"/>
       <use x="163.521484" xlink:href="#DejaVuSans-100"/>
       <use x="226.998047" xlink:href="#DejaVuSans-117"/>
       <use x="290.376953" xlink:href="#DejaVuSans-99"/>
       <use x="345.357422" xlink:href="#DejaVuSans-116"/>
       <use x="384.566406" xlink:href="#DejaVuSans-95"/>
       <use x="434.566406" xlink:href="#DejaVuSans-108"/>
       <use x="462.349609" xlink:href="#DejaVuSans-101"/>
       <use x="523.873047" xlink:href="#DejaVuSans-110"/>
       <use x="587.251953" xlink:href="#DejaVuSans-103"/>
       <use x="650.728516" xlink:href="#DejaVuSans-116"/>
       <use x="689.9375" xlink:href="#DejaVuSans-104"/>
       <use x="753.316406" xlink:href="#DejaVuSans-95"/>
       <use x="803.316406" xlink:href="#DejaVuSans-99"/>
       <use x="858.296875" xlink:href="#DejaVuSans-109"/>
      </g>
     </g>
    </g>
    <g id="xtick_6">
     <g id="line2d_6">
      <g>
       <use style="stroke:#000000;stroke-width:0.8;" x="250.7375" xlink:href="#m79e77b6d0b" y="224.64"/>
      </g>
     </g>
     <g id="text_6">
      <!-- product_height_cm -->
      <g transform="translate(253.357813 327.211875)rotate(-90)scale(0.1 -0.1)">
       <use xlink:href="#DejaVuSans-112"/>
       <use x="63.476562" xlink:href="#DejaVuSans-114"/>
       <use x="102.339844" xlink:href="#DejaVuSans-111"/>
       <use x="163.521484" xlink:href="#DejaVuSans-100"/>
       <use x="226.998047" xlink:href="#DejaVuSans-117"/>
       <use x="290.376953" xlink:href="#DejaVuSans-99"/>
       <use x="345.357422" xlink:href="#DejaVuSans-116"/>
       <use x="384.566406" xlink:href="#DejaVuSans-95"/>
       <use x="434.566406" xlink:href="#DejaVuSans-104"/>
       <use x="497.945312" xlink:href="#DejaVuSans-101"/>
       <use x="559.46875" xlink:href="#DejaVuSans-105"/>
       <use x="587.251953" xlink:href="#DejaVuSans-103"/>
       <use x="650.728516" xlink:href="#DejaVuSans-104"/>
       <use x="714.107422" xlink:href="#DejaVuSans-116"/>
       <use x="753.316406" xlink:href="#DejaVuSans-95"/>
       <use x="803.316406" xlink:href="#DejaVuSans-99"/>
       <use x="858.296875" xlink:href="#DejaVuSans-109"/>
      </g>
     </g>
    </g>
    <g id="xtick_7">
     <g id="line2d_7">
      <g>
       <use style="stroke:#000000;stroke-width:0.8;" x="292.5875" xlink:href="#m79e77b6d0b" y="224.64"/>
      </g>
     </g>
     <g id="text_7">
      <!-- product_width_cm -->
      <g transform="translate(295.207813 322.899375)rotate(-90)scale(0.1 -0.1)">
       <use xlink:href="#DejaVuSans-112"/>
       <use x="63.476562" xlink:href="#DejaVuSans-114"/>
       <use x="102.339844" xlink:href="#DejaVuSans-111"/>
       <use x="163.521484" xlink:href="#DejaVuSans-100"/>
       <use x="226.998047" xlink:href="#DejaVuSans-117"/>
       <use x="290.376953" xlink:href="#DejaVuSans-99"/>
       <use x="345.357422" xlink:href="#DejaVuSans-116"/>
       <use x="384.566406" xlink:href="#DejaVuSans-95"/>
       <use x="434.566406" xlink:href="#DejaVuSans-119"/>
       <use x="516.353516" xlink:href="#DejaVuSans-105"/>
       <use x="544.136719" xlink:href="#DejaVuSans-100"/>
       <use x="607.613281" xlink:href="#DejaVuSans-116"/>
       <use x="646.822266" xlink:href="#DejaVuSans-104"/>
       <use x="710.201172" xlink:href="#DejaVuSans-95"/>
       <use x="760.201172" xlink:href="#DejaVuSans-99"/>
       <use x="815.181641" xlink:href="#DejaVuSans-109"/>
      </g>
     </g>
    </g>
    <g id="xtick_8">
     <g id="line2d_8">
      <g>
       <use style="stroke:#000000;stroke-width:0.8;" x="334.4375" xlink:href="#m79e77b6d0b" y="224.64"/>
      </g>
     </g>
     <g id="text_8">
      <!-- freight_value -->
      <defs>
       <path d="M 37.109375 75.984375 
L 37.109375 68.5 
L 28.515625 68.5 
Q 23.6875 68.5 21.796875 66.546875 
Q 19.921875 64.59375 19.921875 59.515625 
L 19.921875 54.6875 
L 34.71875 54.6875 
L 34.71875 47.703125 
L 19.921875 47.703125 
L 19.921875 0 
L 10.890625 0 
L 10.890625 47.703125 
L 2.296875 47.703125 
L 2.296875 54.6875 
L 10.890625 54.6875 
L 10.890625 58.5 
Q 10.890625 67.625 15.140625 71.796875 
Q 19.390625 75.984375 28.609375 75.984375 
z
" id="DejaVuSans-102"/>
       <path d="M 2.984375 54.6875 
L 12.5 54.6875 
L 29.59375 8.796875 
L 46.6875 54.6875 
L 56.203125 54.6875 
L 35.6875 0 
L 23.484375 0 
z
" id="DejaVuSans-118"/>
      </defs>
      <g transform="translate(337.057813 296.899375)rotate(-90)scale(0.1 -0.1)">
       <use xlink:href="#DejaVuSans-102"/>
       <use x="35.205078" xlink:href="#DejaVuSans-114"/>
       <use x="74.068359" xlink:href="#DejaVuSans-101"/>
       <use x="135.591797" xlink:href="#DejaVuSans-105"/>
       <use x="163.375" xlink:href="#DejaVuSans-103"/>
       <use x="226.851562" xlink:href="#DejaVuSans-104"/>
       <use x="290.230469" xlink:href="#DejaVuSans-116"/>
       <use x="329.439453" xlink:href="#DejaVuSans-95"/>
       <use x="379.439453" xlink:href="#DejaVuSans-118"/>
       <use x="438.619141" xlink:href="#DejaVuSans-97"/>
       <use x="499.898438" xlink:href="#DejaVuSans-108"/>
       <use x="527.681641" xlink:href="#DejaVuSans-117"/>
       <use x="591.060547" xlink:href="#DejaVuSans-101"/>
      </g>
     </g>
    </g>
   </g>
   <g id="matplotlib.axis_2">
    <g id="ytick_1">
     <g id="line2d_9">
      <defs>
       <path d="M 0 0 
L -3.5 0 
" id="m47886bd0ec" style="stroke:#000000;stroke-width:0.8;"/>
      </defs>
      <g>
       <use style="stroke:#000000;stroke-width:0.8;" x="20.5625" xlink:href="#m47886bd0ec" y="224.64"/>
      </g>
     </g>
     <g id="text_9">
      <!-- 0 -->
      <defs>
       <path d="M 31.78125 66.40625 
Q 24.171875 66.40625 20.328125 58.90625 
Q 16.5 51.421875 16.5 36.375 
Q 16.5 21.390625 20.328125 13.890625 
Q 24.171875 6.390625 31.78125 6.390625 
Q 39.453125 6.390625 43.28125 13.890625 
Q 47.125 21.390625 47.125 36.375 
Q 47.125 51.421875 43.28125 58.90625 
Q 39.453125 66.40625 31.78125 66.40625 
z
M 31.78125 74.21875 
Q 44.046875 74.21875 50.515625 64.515625 
Q 56.984375 54.828125 56.984375 36.375 
Q 56.984375 17.96875 50.515625 8.265625 
Q 44.046875 -1.421875 31.78125 -1.421875 
Q 19.53125 -1.421875 13.0625 8.265625 
Q 6.59375 17.96875 6.59375 36.375 
Q 6.59375 54.828125 13.0625 64.515625 
Q 19.53125 74.21875 31.78125 74.21875 
z
" id="DejaVuSans-48"/>
      </defs>
      <g transform="translate(7.2 228.439219)scale(0.1 -0.1)">
       <use xlink:href="#DejaVuSans-48"/>
      </g>
     </g>
    </g>
    <g id="ytick_2">
     <g id="line2d_10">
      <g>
       <use style="stroke:#000000;stroke-width:0.8;" x="20.5625" xlink:href="#m47886bd0ec" y="180.18524"/>
      </g>
     </g>
     <g id="text_10">
      <!-- 2 -->
      <defs>
       <path d="M 19.1875 8.296875 
L 53.609375 8.296875 
L 53.609375 0 
L 7.328125 0 
L 7.328125 8.296875 
Q 12.9375 14.109375 22.625 23.890625 
Q 32.328125 33.6875 34.8125 36.53125 
Q 39.546875 41.84375 41.421875 45.53125 
Q 43.3125 49.21875 43.3125 52.78125 
Q 43.3125 58.59375 39.234375 62.25 
Q 35.15625 65.921875 28.609375 65.921875 
Q 23.96875 65.921875 18.8125 64.3125 
Q 13.671875 62.703125 7.8125 59.421875 
L 7.8125 69.390625 
Q 13.765625 71.78125 18.9375 73 
Q 24.125 74.21875 28.421875 74.21875 
Q 39.75 74.21875 46.484375 68.546875 
Q 53.21875 62.890625 53.21875 53.421875 
Q 53.21875 48.921875 51.53125 44.890625 
Q 49.859375 40.875 45.40625 35.40625 
Q 44.1875 33.984375 37.640625 27.21875 
Q 31.109375 20.453125 19.1875 8.296875 
z
" id="DejaVuSans-50"/>
      </defs>
      <g transform="translate(7.2 183.984459)scale(0.1 -0.1)">
       <use xlink:href="#DejaVuSans-50"/>
      </g>
     </g>
    </g>
    <g id="ytick_3">
     <g id="line2d_11">
      <g>
       <use style="stroke:#000000;stroke-width:0.8;" x="20.5625" xlink:href="#m47886bd0ec" y="135.73048"/>
      </g>
     </g>
     <g id="text_11">
      <!-- 4 -->
      <defs>
       <path d="M 37.796875 64.3125 
L 12.890625 25.390625 
L 37.796875 25.390625 
z
M 35.203125 72.90625 
L 47.609375 72.90625 
L 47.609375 25.390625 
L 58.015625 25.390625 
L 58.015625 17.1875 
L 47.609375 17.1875 
L 47.609375 0 
L 37.796875 0 
L 37.796875 17.1875 
L 4.890625 17.1875 
L 4.890625 26.703125 
z
" id="DejaVuSans-52"/>
      </defs>
      <g transform="translate(7.2 139.529699)scale(0.1 -0.1)">
       <use xlink:href="#DejaVuSans-52"/>
      </g>
     </g>
    </g>
    <g id="ytick_4">
     <g id="line2d_12">
      <g>
       <use style="stroke:#000000;stroke-width:0.8;" x="20.5625" xlink:href="#m47886bd0ec" y="91.27572"/>
      </g>
     </g>
     <g id="text_12">
      <!-- 6 -->
      <defs>
       <path d="M 33.015625 40.375 
Q 26.375 40.375 22.484375 35.828125 
Q 18.609375 31.296875 18.609375 23.390625 
Q 18.609375 15.53125 22.484375 10.953125 
Q 26.375 6.390625 33.015625 6.390625 
Q 39.65625 6.390625 43.53125 10.953125 
Q 47.40625 15.53125 47.40625 23.390625 
Q 47.40625 31.296875 43.53125 35.828125 
Q 39.65625 40.375 33.015625 40.375 
z
M 52.59375 71.296875 
L 52.59375 62.3125 
Q 48.875 64.0625 45.09375 64.984375 
Q 41.3125 65.921875 37.59375 65.921875 
Q 27.828125 65.921875 22.671875 59.328125 
Q 17.53125 52.734375 16.796875 39.40625 
Q 19.671875 43.65625 24.015625 45.921875 
Q 28.375 48.1875 33.59375 48.1875 
Q 44.578125 48.1875 50.953125 41.515625 
Q 57.328125 34.859375 57.328125 23.390625 
Q 57.328125 12.15625 50.6875 5.359375 
Q 44.046875 -1.421875 33.015625 -1.421875 
Q 20.359375 -1.421875 13.671875 8.265625 
Q 6.984375 17.96875 6.984375 36.375 
Q 6.984375 53.65625 15.1875 63.9375 
Q 23.390625 74.21875 37.203125 74.21875 
Q 40.921875 74.21875 44.703125 73.484375 
Q 48.484375 72.75 52.59375 71.296875 
z
" id="DejaVuSans-54"/>
      </defs>
      <g transform="translate(7.2 95.074939)scale(0.1 -0.1)">
       <use xlink:href="#DejaVuSans-54"/>
      </g>
     </g>
    </g>
    <g id="ytick_5">
     <g id="line2d_13">
      <g>
       <use style="stroke:#000000;stroke-width:0.8;" x="20.5625" xlink:href="#m47886bd0ec" y="46.820961"/>
      </g>
     </g>
     <g id="text_13">
      <!-- 8 -->
      <defs>
       <path d="M 31.78125 34.625 
Q 24.75 34.625 20.71875 30.859375 
Q 16.703125 27.09375 16.703125 20.515625 
Q 16.703125 13.921875 20.71875 10.15625 
Q 24.75 6.390625 31.78125 6.390625 
Q 38.8125 6.390625 42.859375 10.171875 
Q 46.921875 13.96875 46.921875 20.515625 
Q 46.921875 27.09375 42.890625 30.859375 
Q 38.875 34.625 31.78125 34.625 
z
M 21.921875 38.8125 
Q 15.578125 40.375 12.03125 44.71875 
Q 8.5 49.078125 8.5 55.328125 
Q 8.5 64.0625 14.71875 69.140625 
Q 20.953125 74.21875 31.78125 74.21875 
Q 42.671875 74.21875 48.875 69.140625 
Q 55.078125 64.0625 55.078125 55.328125 
Q 55.078125 49.078125 51.53125 44.71875 
Q 48 40.375 41.703125 38.8125 
Q 48.828125 37.15625 52.796875 32.3125 
Q 56.78125 27.484375 56.78125 20.515625 
Q 56.78125 9.90625 50.3125 4.234375 
Q 43.84375 -1.421875 31.78125 -1.421875 
Q 19.734375 -1.421875 13.25 4.234375 
Q 6.78125 9.90625 6.78125 20.515625 
Q 6.78125 27.484375 10.78125 32.3125 
Q 14.796875 37.15625 21.921875 38.8125 
z
M 18.3125 54.390625 
Q 18.3125 48.734375 21.84375 45.5625 
Q 25.390625 42.390625 31.78125 42.390625 
Q 38.140625 42.390625 41.71875 45.5625 
Q 45.3125 48.734375 45.3125 54.390625 
Q 45.3125 60.0625 41.71875 63.234375 
Q 38.140625 66.40625 31.78125 66.40625 
Q 25.390625 66.40625 21.84375 63.234375 
Q 18.3125 60.0625 18.3125 54.390625 
z
" id="DejaVuSans-56"/>
      </defs>
      <g transform="translate(7.2 50.620179)scale(0.1 -0.1)">
       <use xlink:href="#DejaVuSans-56"/>
      </g>
     </g>
    </g>
   </g>
   <g id="patch_11">
    <path d="M 20.5625 224.64 
L 20.5625 7.2 
" style="fill:none;stroke:#000000;stroke-linecap:square;stroke-linejoin:miter;stroke-width:0.8;"/>
   </g>
   <g id="patch_12">
    <path d="M 355.3625 224.64 
L 355.3625 7.2 
" style="fill:none;stroke:#000000;stroke-linecap:square;stroke-linejoin:miter;stroke-width:0.8;"/>
   </g>
   <g id="patch_13">
    <path d="M 20.5625 224.64 
L 355.3625 224.64 
" style="fill:none;stroke:#000000;stroke-linecap:square;stroke-linejoin:miter;stroke-width:0.8;"/>
   </g>
   <g id="patch_14">
    <path d="M 20.5625 7.2 
L 355.3625 7.2 
" style="fill:none;stroke:#000000;stroke-linecap:square;stroke-linejoin:miter;stroke-width:0.8;"/>
   </g>
  </g>
 </g>
 <defs>
  <clipPath id="pb571dd8a89">
   <rect height="217.44" width="334.8" x="20.5625" y="7.2"/>
  </clipPath>
 </defs>
</svg>
